<?xml version="1.0" encoding="utf-8" ?>
<svg xmlns="http://www.w3.org/2000/svg" xmlns:xlink="http://www.w3.org/1999/xlink" width="800" height="600">
	<defs>
		<clipPath id="clip_0">
			<rect width="800" height="600" clip-rule="evenodd"/>
		</clipPath>
	</defs>
	<g clip-path="url(#clip_0)">
		<path fill="none" stroke="rgb(0,0,0)" stroke-width="1" stroke-miterlimit="10" d="M73.2256 565.039L73.2256 569.039"/>
	</g>
	<defs>
		<clipPath id="clip_1">
			<rect width="800" height="600" clip-rule="evenodd"/>
		</clipPath>
	</defs>
	<g clip-path="url(#clip_1)">
		<path fill="none" stroke="rgb(0,0,0)" stroke-width="1" stroke-miterlimit="10" d="M95.9685 565.039L95.9685 569.039"/>
	</g>
	<defs>
		<clipPath id="clip_2">
			<rect width="800" height="600" clip-rule="evenodd"/>
		</clipPath>
	</defs>
	<g clip-path="url(#clip_2)">
		<path fill="none" stroke="rgb(0,0,0)" stroke-width="1" stroke-miterlimit="10" d="M118.711 565.039L118.711 569.039"/>
	</g>
	<defs>
		<clipPath id="clip_3">
			<rect width="800" height="600" clip-rule="evenodd"/>
		</clipPath>
	</defs>
	<g clip-path="url(#clip_3)">
		<path fill="none" stroke="rgb(0,0,0)" stroke-width="1" stroke-miterlimit="10" d="M164.197 565.039L164.197 569.039"/>
	</g>
	<defs>
		<clipPath id="clip_4">
			<rect width="800" height="600" clip-rule="evenodd"/>
		</clipPath>
	</defs>
	<g clip-path="url(#clip_4)">
		<path fill="none" stroke="rgb(0,0,0)" stroke-width="1" stroke-miterlimit="10" d="M186.94 565.039L186.94 569.039"/>
	</g>
	<defs>
		<clipPath id="clip_5">
			<rect width="800" height="600" clip-rule="evenodd"/>
		</clipPath>
	</defs>
	<g clip-path="url(#clip_5)">
		<path fill="none" stroke="rgb(0,0,0)" stroke-width="1" stroke-miterlimit="10" d="M209.683 565.039L209.683 569.039"/>
	</g>
	<defs>
		<clipPath id="clip_6">
			<rect width="800" height="600" clip-rule="evenodd"/>
		</clipPath>
	</defs>
	<g clip-path="url(#clip_6)">
		<path fill="none" stroke="rgb(0,0,0)" stroke-width="1" stroke-miterlimit="10" d="M255.168 565.039L255.168 569.039"/>
	</g>
	<defs>
		<clipPath id="clip_7">
			<rect width="800" height="600" clip-rule="evenodd"/>
		</clipPath>
	</defs>
	<g clip-path="url(#clip_7)">
		<path fill="none" stroke="rgb(0,0,0)" stroke-width="1" stroke-miterlimit="10" d="M277.911 565.039L277.911 569.039"/>
	</g>
	<defs>
		<clipPath id="clip_8">
			<rect width="800" height="600" clip-rule="evenodd"/>
		</clipPath>
	</defs>
	<g clip-path="url(#clip_8)">
		<path fill="none" stroke="rgb(0,0,0)" stroke-width="1" stroke-miterlimit="10" d="M300.654 565.039L300.654 569.039"/>
	</g>
	<defs>
		<clipPath id="clip_9">
			<rect width="800" height="600" clip-rule="evenodd"/>
		</clipPath>
	</defs>
	<g clip-path="url(#clip_9)">
		<path fill="none" stroke="rgb(0,0,0)" stroke-width="1" stroke-miterlimit="10" d="M346.14 565.039L346.14 569.039"/>
	</g>
	<defs>
		<clipPath id="clip_10">
			<rect width="800" height="600" clip-rule="evenodd"/>
		</clipPath>
	</defs>
	<g clip-path="url(#clip_10)">
		<path fill="none" stroke="rgb(0,0,0)" stroke-width="1" stroke-miterlimit="10" d="M368.882 565.039L368.882 569.039"/>
	</g>
	<defs>
		<clipPath id="clip_11">
			<rect width="800" height="600" clip-rule="evenodd"/>
		</clipPath>
	</defs>
	<g clip-path="url(#clip_11)">
		<path fill="none" stroke="rgb(0,0,0)" stroke-width="1" stroke-miterlimit="10" d="M391.625 565.039L391.625 569.039"/>
	</g>
	<defs>
		<clipPath id="clip_12">
			<rect width="800" height="600" clip-rule="evenodd"/>
		</clipPath>
	</defs>
	<g clip-path="url(#clip_12)">
		<path fill="none" stroke="rgb(0,0,0)" stroke-width="1" stroke-miterlimit="10" d="M437.111 565.039L437.111 569.039"/>
	</g>
	<defs>
		<clipPath id="clip_13">
			<rect width="800" height="600" clip-rule="evenodd"/>
		</clipPath>
	</defs>
	<g clip-path="url(#clip_13)">
		<path fill="none" stroke="rgb(0,0,0)" stroke-width="1" stroke-miterlimit="10" d="M459.854 565.039L459.854 569.039"/>
	</g>
	<defs>
		<clipPath id="clip_14">
			<rect width="800" height="600" clip-rule="evenodd"/>
		</clipPath>
	</defs>
	<g clip-path="url(#clip_14)">
		<path fill="none" stroke="rgb(0,0,0)" stroke-width="1" stroke-miterlimit="10" d="M482.597 565.039L482.597 569.039"/>
	</g>
	<defs>
		<clipPath id="clip_15">
			<rect width="800" height="600" clip-rule="evenodd"/>
		</clipPath>
	</defs>
	<g clip-path="url(#clip_15)">
		<path fill="none" stroke="rgb(0,0,0)" stroke-width="1" stroke-miterlimit="10" d="M528.082 565.039L528.082 569.039"/>
	</g>
	<defs>
		<clipPath id="clip_16">
			<rect width="800" height="600" clip-rule="evenodd"/>
		</clipPath>
	</defs>
	<g clip-path="url(#clip_16)">
		<path fill="none" stroke="rgb(0,0,0)" stroke-width="1" stroke-miterlimit="10" d="M550.825 565.039L550.825 569.039"/>
	</g>
	<defs>
		<clipPath id="clip_17">
			<rect width="800" height="600" clip-rule="evenodd"/>
		</clipPath>
	</defs>
	<g clip-path="url(#clip_17)">
		<path fill="none" stroke="rgb(0,0,0)" stroke-width="1" stroke-miterlimit="10" d="M573.568 565.039L573.568 569.039"/>
	</g>
	<defs>
		<clipPath id="clip_18">
			<rect width="800" height="600" clip-rule="evenodd"/>
		</clipPath>
	</defs>
	<g clip-path="url(#clip_18)">
		<path fill="none" stroke="rgb(0,0,0)" stroke-width="1" stroke-miterlimit="10" d="M619.054 565.039L619.054 569.039"/>
	</g>
	<defs>
		<clipPath id="clip_19">
			<rect width="800" height="600" clip-rule="evenodd"/>
		</clipPath>
	</defs>
	<g clip-path="url(#clip_19)">
		<path fill="none" stroke="rgb(0,0,0)" stroke-width="1" stroke-miterlimit="10" d="M641.797 565.039L641.797 569.039"/>
	</g>
	<defs>
		<clipPath id="clip_20">
			<rect width="800" height="600" clip-rule="evenodd"/>
		</clipPath>
	</defs>
	<g clip-path="url(#clip_20)">
		<path fill="none" stroke="rgb(0,0,0)" stroke-width="1" stroke-miterlimit="10" d="M664.539 565.039L664.539 569.039"/>
	</g>
	<defs>
		<clipPath id="clip_21">
			<rect width="800" height="600" clip-rule="evenodd"/>
		</clipPath>
	</defs>
	<g clip-path="url(#clip_21)">
		<path fill="none" stroke="rgb(0,0,0)" stroke-width="1" stroke-miterlimit="10" d="M710.025 565.039L710.025 569.039"/>
	</g>
	<defs>
		<clipPath id="clip_22">
			<rect width="800" height="600" clip-rule="evenodd"/>
		</clipPath>
	</defs>
	<g clip-path="url(#clip_22)">
		<path fill="none" stroke="rgb(0,0,0)" stroke-width="1" stroke-miterlimit="10" d="M732.768 565.039L732.768 569.039"/>
	</g>
	<defs>
		<clipPath id="clip_23">
			<rect width="800" height="600" clip-rule="evenodd"/>
		</clipPath>
	</defs>
	<g clip-path="url(#clip_23)">
		<path fill="none" stroke="rgb(0,0,0)" stroke-width="1" stroke-miterlimit="10" d="M755.511 565.039L755.511 569.039"/>
	</g>
	<defs>
		<clipPath id="clip_24">
			<rect width="800" height="600" clip-rule="evenodd"/>
		</clipPath>
	</defs>
	<g clip-path="url(#clip_24)">
		<path fill="none" stroke="rgb(0,0,0)" stroke-width="1" stroke-miterlimit="10" d="M43.2051 562.524L39.2051 562.524"/>
	</g>
	<defs>
		<clipPath id="clip_25">
			<rect width="800" height="600" clip-rule="evenodd"/>
		</clipPath>
	</defs>
	<g clip-path="url(#clip_25)">
		<path fill="none" stroke="rgb(0,0,0)" stroke-width="1" stroke-miterlimit="10" d="M43.2051 542.724L39.2051 542.724"/>
	</g>
	<defs>
		<clipPath id="clip_26">
			<rect width="800" height="600" clip-rule="evenodd"/>
		</clipPath>
	</defs>
	<g clip-path="url(#clip_26)">
		<path fill="none" stroke="rgb(0,0,0)" stroke-width="1" stroke-miterlimit="10" d="M43.2051 522.925L39.2051 522.925"/>
	</g>
	<defs>
		<clipPath id="clip_27">
			<rect width="800" height="600" clip-rule="evenodd"/>
		</clipPath>
	</defs>
	<g clip-path="url(#clip_27)">
		<path fill="none" stroke="rgb(0,0,0)" stroke-width="1" stroke-miterlimit="10" d="M43.2051 503.126L39.2051 503.126"/>
	</g>
	<defs>
		<clipPath id="clip_28">
			<rect width="800" height="600" clip-rule="evenodd"/>
		</clipPath>
	</defs>
	<g clip-path="url(#clip_28)">
		<path fill="none" stroke="rgb(0,0,0)" stroke-width="1" stroke-miterlimit="10" d="M43.2051 463.528L39.2051 463.528"/>
	</g>
	<defs>
		<clipPath id="clip_29">
			<rect width="800" height="600" clip-rule="evenodd"/>
		</clipPath>
	</defs>
	<g clip-path="url(#clip_29)">
		<path fill="none" stroke="rgb(0,0,0)" stroke-width="1" stroke-miterlimit="10" d="M43.2051 443.728L39.2051 443.728"/>
	</g>
	<defs>
		<clipPath id="clip_30">
			<rect width="800" height="600" clip-rule="evenodd"/>
		</clipPath>
	</defs>
	<g clip-path="url(#clip_30)">
		<path fill="none" stroke="rgb(0,0,0)" stroke-width="1" stroke-miterlimit="10" d="M43.2051 423.929L39.2051 423.929"/>
	</g>
	<defs>
		<clipPath id="clip_31">
			<rect width="800" height="600" clip-rule="evenodd"/>
		</clipPath>
	</defs>
	<g clip-path="url(#clip_31)">
		<path fill="none" stroke="rgb(0,0,0)" stroke-width="1" stroke-miterlimit="10" d="M43.2051 404.13L39.2051 404.13"/>
	</g>
	<defs>
		<clipPath id="clip_32">
			<rect width="800" height="600" clip-rule="evenodd"/>
		</clipPath>
	</defs>
	<g clip-path="url(#clip_32)">
		<path fill="none" stroke="rgb(0,0,0)" stroke-width="1" stroke-miterlimit="10" d="M43.2051 364.532L39.2051 364.532"/>
	</g>
	<defs>
		<clipPath id="clip_33">
			<rect width="800" height="600" clip-rule="evenodd"/>
		</clipPath>
	</defs>
	<g clip-path="url(#clip_33)">
		<path fill="none" stroke="rgb(0,0,0)" stroke-width="1" stroke-miterlimit="10" d="M43.2051 344.732L39.2051 344.732"/>
	</g>
	<defs>
		<clipPath id="clip_34">
			<rect width="800" height="600" clip-rule="evenodd"/>
		</clipPath>
	</defs>
	<g clip-path="url(#clip_34)">
		<path fill="none" stroke="rgb(0,0,0)" stroke-width="1" stroke-miterlimit="10" d="M43.2051 324.933L39.2051 324.933"/>
	</g>
	<defs>
		<clipPath id="clip_35">
			<rect width="800" height="600" clip-rule="evenodd"/>
		</clipPath>
	</defs>
	<g clip-path="url(#clip_35)">
		<path fill="none" stroke="rgb(0,0,0)" stroke-width="1" stroke-miterlimit="10" d="M43.2051 305.134L39.2051 305.134"/>
	</g>
	<defs>
		<clipPath id="clip_36">
			<rect width="800" height="600" clip-rule="evenodd"/>
		</clipPath>
	</defs>
	<g clip-path="url(#clip_36)">
		<path fill="none" stroke="rgb(0,0,0)" stroke-width="1" stroke-miterlimit="10" d="M43.2051 265.536L39.2051 265.536"/>
	</g>
	<defs>
		<clipPath id="clip_37">
			<rect width="800" height="600" clip-rule="evenodd"/>
		</clipPath>
	</defs>
	<g clip-path="url(#clip_37)">
		<path fill="none" stroke="rgb(0,0,0)" stroke-width="1" stroke-miterlimit="10" d="M43.2051 245.736L39.2051 245.736"/>
	</g>
	<defs>
		<clipPath id="clip_38">
			<rect width="800" height="600" clip-rule="evenodd"/>
		</clipPath>
	</defs>
	<g clip-path="url(#clip_38)">
		<path fill="none" stroke="rgb(0,0,0)" stroke-width="1" stroke-miterlimit="10" d="M43.2051 225.937L39.2051 225.937"/>
	</g>
	<defs>
		<clipPath id="clip_39">
			<rect width="800" height="600" clip-rule="evenodd"/>
		</clipPath>
	</defs>
	<g clip-path="url(#clip_39)">
		<path fill="none" stroke="rgb(0,0,0)" stroke-width="1" stroke-miterlimit="10" d="M43.2051 206.138L39.2051 206.138"/>
	</g>
	<defs>
		<clipPath id="clip_40">
			<rect width="800" height="600" clip-rule="evenodd"/>
		</clipPath>
	</defs>
	<g clip-path="url(#clip_40)">
		<path fill="none" stroke="rgb(0,0,0)" stroke-width="1" stroke-miterlimit="10" d="M43.2051 166.54L39.2051 166.54"/>
	</g>
	<defs>
		<clipPath id="clip_41">
			<rect width="800" height="600" clip-rule="evenodd"/>
		</clipPath>
	</defs>
	<g clip-path="url(#clip_41)">
		<path fill="none" stroke="rgb(0,0,0)" stroke-width="1" stroke-miterlimit="10" d="M43.2051 146.74L39.2051 146.74"/>
	</g>
	<defs>
		<clipPath id="clip_42">
			<rect width="800" height="600" clip-rule="evenodd"/>
		</clipPath>
	</defs>
	<g clip-path="url(#clip_42)">
		<path fill="none" stroke="rgb(0,0,0)" stroke-width="1" stroke-miterlimit="10" d="M43.2051 126.941L39.2051 126.941"/>
	</g>
	<defs>
		<clipPath id="clip_43">
			<rect width="800" height="600" clip-rule="evenodd"/>
		</clipPath>
	</defs>
	<g clip-path="url(#clip_43)">
		<path fill="none" stroke="rgb(0,0,0)" stroke-width="1" stroke-miterlimit="10" d="M43.2051 107.142L39.2051 107.142"/>
	</g>
	<defs>
		<clipPath id="clip_44">
			<rect width="800" height="600" clip-rule="evenodd"/>
		</clipPath>
	</defs>
	<g clip-path="url(#clip_44)">
		<path fill="none" stroke="rgb(0,0,0)" stroke-width="1" stroke-miterlimit="10" d="M43.2051 67.5436L39.2051 67.5436"/>
	</g>
	<defs>
		<clipPath id="clip_45">
			<rect width="800" height="600" clip-rule="evenodd"/>
		</clipPath>
	</defs>
	<g clip-path="url(#clip_45)">
		<path fill="none" stroke="rgb(0,0,0)" stroke-width="1" stroke-miterlimit="10" d="M43.2051 47.7444L39.2051 47.7444"/>
	</g>
	<defs>
		<clipPath id="clip_46">
			<rect width="800" height="600" clip-rule="evenodd"/>
		</clipPath>
	</defs>
	<g clip-path="url(#clip_46)">
		<text fill="rgb(0,0,0)" stroke="none" transform="translate(50.4828 576.039)" font-size="12" text-anchor="middle" font-family="Segoe UI" x="0" y="12.949219">
				0
		</text>
	</g>
	<defs>
		<clipPath id="clip_47">
			<rect width="800" height="600" clip-rule="evenodd"/>
		</clipPath>
	</defs>
	<g clip-path="url(#clip_47)">
		<text fill="rgb(0,0,0)" stroke="none" transform="translate(141.454 576.039)" font-size="12" text-anchor="middle" font-family="Segoe UI" x="0" y="12.949219">
				2
		</text>
	</g>
	<defs>
		<clipPath id="clip_48">
			<rect width="800" height="600" clip-rule="evenodd"/>
		</clipPath>
	</defs>
	<g clip-path="url(#clip_48)">
		<text fill="rgb(0,0,0)" stroke="none" transform="translate(232.425 576.039)" font-size="12" text-anchor="middle" font-family="Segoe UI" x="0" y="12.949219">
				4
		</text>
	</g>
	<defs>
		<clipPath id="clip_49">
			<rect width="800" height="600" clip-rule="evenodd"/>
		</clipPath>
	</defs>
	<g clip-path="url(#clip_49)">
		<text fill="rgb(0,0,0)" stroke="none" transform="translate(323.397 576.039)" font-size="12" text-anchor="middle" font-family="Segoe UI" x="0" y="12.949219">
				6
		</text>
	</g>
	<defs>
		<clipPath id="clip_50">
			<rect width="800" height="600" clip-rule="evenodd"/>
		</clipPath>
	</defs>
	<g clip-path="url(#clip_50)">
		<text fill="rgb(0,0,0)" stroke="none" transform="translate(414.368 576.039)" font-size="12" text-anchor="middle" font-family="Segoe UI" x="0" y="12.949219">
				8
		</text>
	</g>
	<defs>
		<clipPath id="clip_51">
			<rect width="800" height="600" clip-rule="evenodd"/>
		</clipPath>
	</defs>
	<g clip-path="url(#clip_51)">
		<text fill="rgb(0,0,0)" stroke="none" transform="translate(505.34 576.039)" font-size="12" text-anchor="middle" font-family="Segoe UI" x="0" y="12.949219">
				10
		</text>
	</g>
	<defs>
		<clipPath id="clip_52">
			<rect width="800" height="600" clip-rule="evenodd"/>
		</clipPath>
	</defs>
	<g clip-path="url(#clip_52)">
		<text fill="rgb(0,0,0)" stroke="none" transform="translate(596.311 576.039)" font-size="12" text-anchor="middle" font-family="Segoe UI" x="0" y="12.949219">
				12
		</text>
	</g>
	<defs>
		<clipPath id="clip_53">
			<rect width="800" height="600" clip-rule="evenodd"/>
		</clipPath>
	</defs>
	<g clip-path="url(#clip_53)">
		<text fill="rgb(0,0,0)" stroke="none" transform="translate(687.282 576.039)" font-size="12" text-anchor="middle" font-family="Segoe UI" x="0" y="12.949219">
				14
		</text>
	</g>
	<defs>
		<clipPath id="clip_54">
			<rect width="800" height="600" clip-rule="evenodd"/>
		</clipPath>
	</defs>
	<g clip-path="url(#clip_54)">
		<text fill="rgb(0,0,0)" stroke="none" transform="translate(778.254 576.039)" font-size="12" text-anchor="middle" font-family="Segoe UI" x="0" y="12.949219">
				16
		</text>
	</g>
	<defs>
		<clipPath id="clip_55">
			<rect width="800" height="600" clip-rule="evenodd"/>
		</clipPath>
	</defs>
	<g clip-path="url(#clip_55)">
		<path fill="none" stroke="rgb(0,0,0)" stroke-width="1" stroke-miterlimit="10" d="M50.4828 565.039L50.4828 572.039"/>
	</g>
	<defs>
		<clipPath id="clip_56">
			<rect width="800" height="600" clip-rule="evenodd"/>
		</clipPath>
	</defs>
	<g clip-path="url(#clip_56)">
		<path fill="none" stroke="rgb(0,0,0)" stroke-width="1" stroke-miterlimit="10" d="M141.454 565.039L141.454 572.039"/>
	</g>
	<defs>
		<clipPath id="clip_57">
			<rect width="800" height="600" clip-rule="evenodd"/>
		</clipPath>
	</defs>
	<g clip-path="url(#clip_57)">
		<path fill="none" stroke="rgb(0,0,0)" stroke-width="1" stroke-miterlimit="10" d="M232.425 565.039L232.425 572.039"/>
	</g>
	<defs>
		<clipPath id="clip_58">
			<rect width="800" height="600" clip-rule="evenodd"/>
		</clipPath>
	</defs>
	<g clip-path="url(#clip_58)">
		<path fill="none" stroke="rgb(0,0,0)" stroke-width="1" stroke-miterlimit="10" d="M323.397 565.039L323.397 572.039"/>
	</g>
	<defs>
		<clipPath id="clip_59">
			<rect width="800" height="600" clip-rule="evenodd"/>
		</clipPath>
	</defs>
	<g clip-path="url(#clip_59)">
		<path fill="none" stroke="rgb(0,0,0)" stroke-width="1" stroke-miterlimit="10" d="M414.368 565.039L414.368 572.039"/>
	</g>
	<defs>
		<clipPath id="clip_60">
			<rect width="800" height="600" clip-rule="evenodd"/>
		</clipPath>
	</defs>
	<g clip-path="url(#clip_60)">
		<path fill="none" stroke="rgb(0,0,0)" stroke-width="1" stroke-miterlimit="10" d="M505.34 565.039L505.34 572.039"/>
	</g>
	<defs>
		<clipPath id="clip_61">
			<rect width="800" height="600" clip-rule="evenodd"/>
		</clipPath>
	</defs>
	<g clip-path="url(#clip_61)">
		<path fill="none" stroke="rgb(0,0,0)" stroke-width="1" stroke-miterlimit="10" d="M596.311 565.039L596.311 572.039"/>
	</g>
	<defs>
		<clipPath id="clip_62">
			<rect width="800" height="600" clip-rule="evenodd"/>
		</clipPath>
	</defs>
	<g clip-path="url(#clip_62)">
		<path fill="none" stroke="rgb(0,0,0)" stroke-width="1" stroke-miterlimit="10" d="M687.282 565.039L687.282 572.039"/>
	</g>
	<defs>
		<clipPath id="clip_63">
			<rect width="800" height="600" clip-rule="evenodd"/>
		</clipPath>
	</defs>
	<g clip-path="url(#clip_63)">
		<path fill="none" stroke="rgb(0,0,0)" stroke-width="1" stroke-miterlimit="10" d="M778.254 565.039L778.254 572.039"/>
	</g>
	<defs>
		<clipPath id="clip_64">
			<rect width="800" height="600" clip-rule="evenodd"/>
		</clipPath>
	</defs>
	<g clip-path="url(#clip_64)">
		<text fill="rgb(0,0,0)" stroke="none" transform="translate(32.2051 483.327)" font-size="12" text-anchor="end" font-family="Segoe UI" x="0" y="4.96875">
				-150
		</text>
	</g>
	<defs>
		<clipPath id="clip_65">
			<rect width="800" height="600" clip-rule="evenodd"/>
		</clipPath>
	</defs>
	<g clip-path="url(#clip_65)">
		<text fill="rgb(0,0,0)" stroke="none" transform="translate(32.2051 384.331)" font-size="12" text-anchor="end" font-family="Segoe UI" x="0" y="4.96875">
				-100
		</text>
	</g>
	<defs>
		<clipPath id="clip_66">
			<rect width="800" height="600" clip-rule="evenodd"/>
		</clipPath>
	</defs>
	<g clip-path="url(#clip_66)">
		<text fill="rgb(0,0,0)" stroke="none" transform="translate(32.2051 285.335)" font-size="12" text-anchor="end" font-family="Segoe UI" x="0" y="4.96875">
				-50
		</text>
	</g>
	<defs>
		<clipPath id="clip_67">
			<rect width="800" height="600" clip-rule="evenodd"/>
		</clipPath>
	</defs>
	<g clip-path="url(#clip_67)">
		<text fill="rgb(0,0,0)" stroke="none" transform="translate(32.2051 186.339)" font-size="12" text-anchor="end" font-family="Segoe UI" x="0" y="4.96875">
				0
		</text>
	</g>
	<defs>
		<clipPath id="clip_68">
			<rect width="800" height="600" clip-rule="evenodd"/>
		</clipPath>
	</defs>
	<g clip-path="url(#clip_68)">
		<text fill="rgb(0,0,0)" stroke="none" transform="translate(32.2051 87.3428)" font-size="12" text-anchor="end" font-family="Segoe UI" x="0" y="4.96875">
				50
		</text>
	</g>
	<defs>
		<clipPath id="clip_69">
			<rect width="800" height="600" clip-rule="evenodd"/>
		</clipPath>
	</defs>
	<g clip-path="url(#clip_69)">
		<path fill="none" stroke="rgb(0,0,0)" stroke-width="1" stroke-miterlimit="10" d="M43.2051 483.327L36.2051 483.327"/>
	</g>
	<defs>
		<clipPath id="clip_70">
			<rect width="800" height="600" clip-rule="evenodd"/>
		</clipPath>
	</defs>
	<g clip-path="url(#clip_70)">
		<path fill="none" stroke="rgb(0,0,0)" stroke-width="1" stroke-miterlimit="10" d="M43.2051 384.331L36.2051 384.331"/>
	</g>
	<defs>
		<clipPath id="clip_71">
			<rect width="800" height="600" clip-rule="evenodd"/>
		</clipPath>
	</defs>
	<g clip-path="url(#clip_71)">
		<path fill="none" stroke="rgb(0,0,0)" stroke-width="1" stroke-miterlimit="10" d="M43.2051 285.335L36.2051 285.335"/>
	</g>
	<defs>
		<clipPath id="clip_72">
			<rect width="800" height="600" clip-rule="evenodd"/>
		</clipPath>
	</defs>
	<g clip-path="url(#clip_72)">
		<path fill="none" stroke="rgb(0,0,0)" stroke-width="1" stroke-miterlimit="10" d="M43.2051 186.339L36.2051 186.339"/>
	</g>
	<defs>
		<clipPath id="clip_73">
			<rect width="800" height="600" clip-rule="evenodd"/>
		</clipPath>
	</defs>
	<g clip-path="url(#clip_73)">
		<path fill="none" stroke="rgb(0,0,0)" stroke-width="1" stroke-miterlimit="10" d="M43.2051 87.3428L36.2051 87.3428"/>
	</g>
	<defs>
		<clipPath id="clip_74">
			<rect x="43.205078" y="45.921875" width="742.32617" height="519.11719" clip-rule="evenodd"/>
		</clipPath>
	</defs>
	<g clip-path="url(#clip_74)">
		<path fill="none" stroke="rgb(78,154,6)" stroke-width="2" stroke-linejoin="bevel" d="M50.4828 206.831L141.454 121.001L232.425 51.0113L323.397 190.299L414.368 321.666L505.34 559.95L596.311 268.01L687.282 170.301L778.254 217.523"/>
	</g>
	<defs>
		<clipPath id="clip_75">
			<rect x="43.205078" y="45.921875" width="742.32617" height="519.11719" clip-rule="evenodd"/>
		</clipPath>
	</defs>
	<g clip-path="url(#clip_75)">
		<path fill="rgb(78,154,6)" stroke="none" d="M53.4828 206.831Q53.4828 206.978 53.4683 207.125Q53.4539 207.272 53.4251 207.416Q53.3964 207.561 53.3536 207.702Q53.3108 207.843 53.2544 207.979Q53.198 208.115 53.1285 208.245Q53.0591 208.375 52.9772 208.498Q52.8953 208.62 52.8018 208.734Q52.7083 208.848 52.6041 208.952Q52.4999 209.056 52.386 209.15Q52.272 209.243 52.1495 209.325Q52.027 209.407 51.897 209.477Q51.767 209.546 51.6308 209.603Q51.4947 209.659 51.3536 209.702Q51.2126 209.745 51.0681 209.773Q50.9235 209.802 50.7768 209.817Q50.6302 209.831 50.4828 209.831Q50.3354 209.831 50.1887 209.817Q50.0421 209.802 49.8975 209.773Q49.753 209.745 49.6119 209.702Q49.4709 209.659 49.3347 209.603Q49.1986 209.546 49.0686 209.477Q48.9386 209.407 48.8161 209.325Q48.6935 209.243 48.5796 209.15Q48.4657 209.056 48.3615 208.952Q48.2572 208.848 48.1637 208.734Q48.0703 208.62 47.9884 208.498Q47.9065 208.375 47.837 208.245Q47.7675 208.115 47.7111 207.979Q47.6547 207.843 47.612 207.702Q47.5692 207.561 47.5404 207.416Q47.5117 207.272 47.4972 207.125Q47.4828 206.978 47.4828 206.831Q47.4828 206.684 47.4972 206.537Q47.5117 206.39 47.5404 206.246Q47.5692 206.101 47.612 205.96Q47.6547 205.819 47.7111 205.683Q47.7675 205.547 47.837 205.417Q47.9065 205.287 47.9884 205.164Q48.0703 205.042 48.1637 204.928Q48.2572 204.814 48.3615 204.71Q48.4657 204.605 48.5796 204.512Q48.6935 204.418 48.8161 204.337Q48.9386 204.255 49.0686 204.185Q49.1986 204.116 49.3347 204.059Q49.4709 204.003 49.6119 203.96Q49.753 203.917 49.8975 203.889Q50.0421 203.86 50.1887 203.845Q50.3354 203.831 50.4828 203.831Q50.6302 203.831 50.7768 203.845Q50.9235 203.86 51.0681 203.889Q51.2126 203.917 51.3536 203.96Q51.4947 204.003 51.6308 204.059Q51.767 204.116 51.897 204.185Q52.027 204.255 52.1495 204.337Q52.272 204.418 52.386 204.512Q52.4999 204.605 52.6041 204.71Q52.7083 204.814 52.8018 204.928Q52.8953 205.042 52.9772 205.164Q53.0591 205.287 53.1286 205.417Q53.198 205.547 53.2544 205.683Q53.3108 205.819 53.3536 205.96Q53.3964 206.101 53.4251 206.246Q53.4539 206.39 53.4683 206.537Q53.4828 206.684 53.4828 206.831ZM144.454 121.001Q144.454 121.149 144.44 121.295Q144.425 121.442 144.396 121.587Q144.368 121.731 144.325 121.872Q144.282 122.013 144.226 122.149Q144.169 122.286 144.1 122.416Q144.03 122.546 143.949 122.668Q143.867 122.791 143.773 122.905Q143.68 123.019 143.575 123.123Q143.471 123.227 143.357 123.32Q143.243 123.414 143.121 123.496Q142.998 123.578 142.868 123.647Q142.738 123.717 142.602 123.773Q142.466 123.829 142.325 123.872Q142.184 123.915 142.039 123.944Q141.895 123.973 141.748 123.987Q141.602 124.001 141.454 124.001Q141.307 124.001 141.16 123.987Q141.013 123.973 140.869 123.944Q140.724 123.915 140.583 123.872Q140.442 123.829 140.306 123.773Q140.17 123.717 140.04 123.647Q139.91 123.578 139.787 123.496Q139.665 123.414 139.551 123.32Q139.437 123.227 139.333 123.123Q139.229 123.019 139.135 122.905Q139.042 122.791 138.96 122.668Q138.878 122.546 138.808 122.416Q138.739 122.286 138.682 122.149Q138.626 122.013 138.583 121.872Q138.541 121.731 138.512 121.587Q138.483 121.442 138.469 121.295Q138.454 121.149 138.454 121.001Q138.454 120.854 138.469 120.707Q138.483 120.561 138.512 120.416Q138.541 120.272 138.583 120.131Q138.626 119.99 138.682 119.853Q138.739 119.717 138.808 119.587Q138.878 119.457 138.96 119.335Q139.042 119.212 139.135 119.098Q139.229 118.984 139.333 118.88Q139.437 118.776 139.551 118.682Q139.665 118.589 139.787 118.507Q139.91 118.425 140.04 118.356Q140.17 118.286 140.306 118.23Q140.442 118.173 140.583 118.131Q140.724 118.088 140.869 118.059Q141.013 118.03 141.16 118.016Q141.307 118.001 141.454 118.001Q141.602 118.001 141.748 118.016Q141.895 118.03 142.039 118.059Q142.184 118.088 142.325 118.131Q142.466 118.173 142.602 118.23Q142.738 118.286 142.868 118.356Q142.998 118.425 143.121 118.507Q143.243 118.589 143.357 118.682Q143.471 118.776 143.575 118.88Q143.68 118.984 143.773 119.098Q143.867 119.212 143.949 119.335Q144.03 119.457 144.1 119.587Q144.169 119.717 144.226 119.853Q144.282 119.99 144.325 120.131Q144.368 120.272 144.396 120.416Q144.425 120.561 144.44 120.707Q144.454 120.854 144.454 121.001ZM235.425 51.0113Q235.425 51.1586 235.411 51.3053Q235.397 51.452 235.368 51.5965Q235.339 51.7411 235.296 51.8821Q235.253 52.0231 235.197 52.1593Q235.141 52.2955 235.071 52.4254Q235.002 52.5554 234.92 52.678Q234.838 52.8005 234.744 52.9144Q234.651 53.0284 234.547 53.1326Q234.443 53.2368 234.329 53.3303Q234.215 53.4238 234.092 53.5057Q233.97 53.5875 233.84 53.657Q233.71 53.7265 233.574 53.7829Q233.437 53.8393 233.296 53.8821Q233.155 53.9249 233.011 53.9536Q232.866 53.9824 232.72 53.9968Q232.573 54.0113 232.425 54.0113Q232.278 54.0113 232.131 53.9968Q231.985 53.9824 231.84 53.9536Q231.696 53.9249 231.555 53.8821Q231.414 53.8393 231.277 53.7829Q231.141 53.7265 231.011 53.657Q230.881 53.5875 230.759 53.5057Q230.636 53.4238 230.522 53.3303Q230.408 53.2368 230.304 53.1326Q230.2 53.0284 230.106 52.9144Q230.013 52.8005 229.931 52.678Q229.849 52.5554 229.78 52.4254Q229.71 52.2955 229.654 52.1593Q229.597 52.0231 229.555 51.8821Q229.512 51.7411 229.483 51.5965Q229.454 51.452 229.44 51.3053Q229.425 51.1586 229.425 51.0113Q229.425 50.8639 229.44 50.7172Q229.454 50.5705 229.483 50.426Q229.512 50.2814 229.555 50.1404Q229.597 49.9994 229.654 49.8632Q229.71 49.727 229.78 49.5971Q229.849 49.4671 229.931 49.3445Q230.013 49.222 230.106 49.1081Q230.2 48.9942 230.304 48.8899Q230.408 48.7857 230.522 48.6922Q230.636 48.5987 230.759 48.5169Q230.881 48.435 231.011 48.3655Q231.141 48.296 231.277 48.2396Q231.414 48.1832 231.555 48.1404Q231.696 48.0977 231.84 48.0689Q231.985 48.0402 232.131 48.0257Q232.278 48.0113 232.425 48.0113Q232.573 48.0113 232.72 48.0257Q232.866 48.0402 233.011 48.0689Q233.155 48.0977 233.296 48.1404Q233.437 48.1832 233.574 48.2396Q233.71 48.296 233.84 48.3655Q233.97 48.435 234.092 48.5168Q234.215 48.5987 234.329 48.6922Q234.443 48.7857 234.547 48.8899Q234.651 48.9942 234.745 49.1081Q234.838 49.222 234.92 49.3445Q235.002 49.4671 235.071 49.5971Q235.141 49.727 235.197 49.8632Q235.253 49.9994 235.296 50.1404Q235.339 50.2814 235.368 50.426Q235.397 50.5705 235.411 50.7172Q235.425 50.8639 235.425 51.0113ZM326.397 190.299Q326.397 190.446 326.382 190.593Q326.368 190.739 326.339 190.884Q326.31 191.028 326.268 191.169Q326.225 191.311 326.168 191.447Q326.112 191.583 326.043 191.713Q325.973 191.843 325.891 191.965Q325.809 192.088 325.716 192.202Q325.622 192.316 325.518 192.42Q325.414 192.524 325.3 192.618Q325.186 192.711 325.063 192.793Q324.941 192.875 324.811 192.944Q324.681 193.014 324.545 193.07Q324.409 193.127 324.268 193.169Q324.127 193.212 323.982 193.241Q323.838 193.27 323.691 193.284Q323.544 193.299 323.397 193.299Q323.249 193.299 323.103 193.284Q322.956 193.27 322.812 193.241Q322.667 193.212 322.526 193.169Q322.385 193.127 322.249 193.07Q322.113 193.014 321.983 192.944Q321.853 192.875 321.73 192.793Q321.608 192.711 321.494 192.618Q321.38 192.524 321.275 192.42Q321.171 192.316 321.078 192.202Q320.984 192.088 320.902 191.965Q320.821 191.843 320.751 191.713Q320.682 191.583 320.625 191.447Q320.569 191.311 320.526 191.169Q320.483 191.028 320.454 190.884Q320.426 190.739 320.411 190.593Q320.397 190.446 320.397 190.299Q320.397 190.151 320.411 190.005Q320.426 189.858 320.454 189.713Q320.483 189.569 320.526 189.428Q320.569 189.287 320.625 189.151Q320.682 189.014 320.751 188.884Q320.821 188.754 320.902 188.632Q320.984 188.509 321.078 188.395Q321.171 188.282 321.275 188.177Q321.38 188.073 321.494 187.98Q321.608 187.886 321.73 187.804Q321.853 187.722 321.983 187.653Q322.113 187.583 322.249 187.527Q322.385 187.471 322.526 187.428Q322.667 187.385 322.812 187.356Q322.956 187.328 323.103 187.313Q323.249 187.299 323.397 187.299Q323.544 187.299 323.691 187.313Q323.838 187.328 323.982 187.356Q324.127 187.385 324.268 187.428Q324.409 187.471 324.545 187.527Q324.681 187.583 324.811 187.653Q324.941 187.722 325.063 187.804Q325.186 187.886 325.3 187.98Q325.414 188.073 325.518 188.177Q325.622 188.282 325.716 188.395Q325.809 188.509 325.891 188.632Q325.973 188.754 326.043 188.884Q326.112 189.014 326.168 189.151Q326.225 189.287 326.268 189.428Q326.31 189.569 326.339 189.713Q326.368 189.858 326.382 190.005Q326.397 190.151 326.397 190.299ZM417.368 321.666Q417.368 321.814 417.354 321.96Q417.339 322.107 417.31 322.252Q417.282 322.396 417.239 322.537Q417.196 322.678 417.14 322.814Q417.083 322.951 417.014 323.081Q416.944 323.21 416.863 323.333Q416.781 323.456 416.687 323.569Q416.594 323.683 416.489 323.788Q416.385 323.892 416.271 323.985Q416.157 324.079 416.035 324.161Q415.912 324.243 415.782 324.312Q415.652 324.382 415.516 324.438Q415.38 324.494 415.239 324.537Q415.098 324.58 414.953 324.609Q414.809 324.637 414.662 324.652Q414.516 324.666 414.368 324.666Q414.221 324.666 414.074 324.652Q413.927 324.637 413.783 324.609Q413.638 324.58 413.497 324.537Q413.356 324.494 413.22 324.438Q413.084 324.382 412.954 324.312Q412.824 324.243 412.701 324.161Q412.579 324.079 412.465 323.985Q412.351 323.892 412.247 323.788Q412.143 323.683 412.049 323.569Q411.956 323.456 411.874 323.333Q411.792 323.21 411.722 323.08Q411.653 322.95 411.596 322.814Q411.54 322.678 411.497 322.537Q411.455 322.396 411.426 322.252Q411.397 322.107 411.383 321.96Q411.368 321.814 411.368 321.666Q411.368 321.519 411.383 321.372Q411.397 321.226 411.426 321.081Q411.455 320.936 411.497 320.795Q411.54 320.654 411.596 320.518Q411.653 320.382 411.722 320.252Q411.792 320.122 411.874 320Q411.956 319.877 412.049 319.763Q412.143 319.649 412.247 319.545Q412.351 319.441 412.465 319.347Q412.579 319.254 412.701 319.172Q412.824 319.09 412.954 319.021Q413.084 318.951 413.22 318.895Q413.356 318.838 413.497 318.796Q413.638 318.753 413.783 318.724Q413.927 318.695 414.074 318.681Q414.221 318.666 414.368 318.666Q414.516 318.666 414.662 318.681Q414.809 318.695 414.953 318.724Q415.098 318.753 415.239 318.796Q415.38 318.838 415.516 318.895Q415.652 318.951 415.782 319.021Q415.912 319.09 416.035 319.172Q416.157 319.254 416.271 319.347Q416.385 319.441 416.489 319.545Q416.594 319.649 416.687 319.763Q416.781 319.877 416.863 320Q416.944 320.122 417.014 320.252Q417.083 320.382 417.14 320.518Q417.196 320.654 417.239 320.795Q417.282 320.936 417.311 321.081Q417.339 321.226 417.354 321.372Q417.368 321.519 417.368 321.666ZM508.34 559.95Q508.34 560.097 508.325 560.244Q508.311 560.39 508.282 560.535Q508.253 560.68 508.21 560.821Q508.168 560.962 508.111 561.098Q508.055 561.234 507.985 561.364Q507.916 561.494 507.834 561.616Q507.752 561.739 507.659 561.853Q507.565 561.967 507.461 562.071Q507.357 562.175 507.243 562.269Q507.129 562.362 507.006 562.444Q506.884 562.526 506.754 562.595Q506.624 562.665 506.487 562.721Q506.351 562.778 506.21 562.82Q506.069 562.863 505.925 562.892Q505.78 562.921 505.634 562.935Q505.487 562.95 505.34 562.95Q505.192 562.95 505.045 562.935Q504.899 562.921 504.754 562.892Q504.61 562.863 504.469 562.82Q504.328 562.778 504.191 562.721Q504.055 562.665 503.925 562.595Q503.795 562.526 503.673 562.444Q503.55 562.362 503.436 562.269Q503.322 562.175 503.218 562.071Q503.114 561.967 503.02 561.853Q502.927 561.739 502.845 561.616Q502.763 561.494 502.694 561.364Q502.624 561.234 502.568 561.098Q502.511 560.962 502.469 560.821Q502.426 560.68 502.397 560.535Q502.368 560.39 502.354 560.244Q502.34 560.097 502.34 559.95Q502.34 559.802 502.354 559.656Q502.368 559.509 502.397 559.364Q502.426 559.22 502.469 559.079Q502.511 558.938 502.568 558.802Q502.624 558.665 502.694 558.535Q502.763 558.406 502.845 558.283Q502.927 558.16 503.02 558.047Q503.114 557.933 503.218 557.828Q503.322 557.724 503.436 557.631Q503.55 557.537 503.673 557.455Q503.795 557.373 503.925 557.304Q504.055 557.234 504.191 557.178Q504.328 557.122 504.469 557.079Q504.61 557.036 504.754 557.007Q504.899 556.979 505.045 556.964Q505.192 556.95 505.34 556.95Q505.487 556.95 505.634 556.964Q505.78 556.979 505.925 557.007Q506.069 557.036 506.21 557.079Q506.351 557.122 506.487 557.178Q506.624 557.234 506.754 557.304Q506.884 557.373 507.006 557.455Q507.129 557.537 507.243 557.631Q507.357 557.724 507.461 557.828Q507.565 557.933 507.659 558.047Q507.752 558.16 507.834 558.283Q507.916 558.405 507.985 558.535Q508.055 558.665 508.111 558.802Q508.167 558.938 508.21 559.079Q508.253 559.22 508.282 559.364Q508.311 559.509 508.325 559.656Q508.34 559.802 508.34 559.95ZM599.311 268.01Q599.311 268.158 599.296 268.305Q599.282 268.451 599.253 268.596Q599.224 268.74 599.182 268.881Q599.139 269.022 599.082 269.159Q599.026 269.295 598.957 269.425Q598.887 269.555 598.805 269.677Q598.723 269.8 598.63 269.914Q598.536 270.028 598.432 270.132Q598.328 270.236 598.214 270.33Q598.1 270.423 597.978 270.505Q597.855 270.587 597.725 270.656Q597.595 270.726 597.459 270.782Q597.323 270.839 597.182 270.881Q597.041 270.924 596.896 270.953Q596.752 270.982 596.605 270.996Q596.458 271.01 596.311 271.01Q596.163 271.01 596.017 270.996Q595.87 270.982 595.726 270.953Q595.581 270.924 595.44 270.881Q595.299 270.839 595.163 270.782Q595.027 270.726 594.897 270.656Q594.767 270.587 594.644 270.505Q594.522 270.423 594.408 270.33Q594.294 270.236 594.19 270.132Q594.085 270.028 593.992 269.914Q593.898 269.8 593.816 269.677Q593.734 269.555 593.665 269.425Q593.596 269.295 593.539 269.159Q593.483 269.022 593.44 268.881Q593.397 268.74 593.368 268.596Q593.34 268.451 593.325 268.305Q593.311 268.158 593.311 268.01Q593.311 267.863 593.325 267.716Q593.34 267.57 593.368 267.425Q593.397 267.281 593.44 267.14Q593.483 266.999 593.539 266.862Q593.596 266.726 593.665 266.596Q593.734 266.466 593.816 266.344Q593.898 266.221 593.992 266.107Q594.085 265.993 594.19 265.889Q594.294 265.785 594.408 265.691Q594.522 265.598 594.644 265.516Q594.767 265.434 594.897 265.365Q595.027 265.295 595.163 265.239Q595.299 265.182 595.44 265.14Q595.581 265.097 595.726 265.068Q595.87 265.039 596.017 265.025Q596.163 265.01 596.311 265.01Q596.458 265.01 596.605 265.025Q596.752 265.039 596.896 265.068Q597.041 265.097 597.182 265.14Q597.323 265.182 597.459 265.239Q597.595 265.295 597.725 265.365Q597.855 265.434 597.978 265.516Q598.1 265.598 598.214 265.691Q598.328 265.785 598.432 265.889Q598.536 265.993 598.63 266.107Q598.723 266.221 598.805 266.344Q598.887 266.466 598.957 266.596Q599.026 266.726 599.082 266.862Q599.139 266.999 599.182 267.14Q599.224 267.281 599.253 267.425Q599.282 267.57 599.296 267.716Q599.311 267.863 599.311 268.01ZM690.282 170.301Q690.282 170.449 690.268 170.595Q690.253 170.742 690.225 170.887Q690.196 171.031 690.153 171.172Q690.11 171.313 690.054 171.449Q689.997 171.586 689.928 171.716Q689.858 171.846 689.777 171.968Q689.695 172.091 689.601 172.205Q689.508 172.319 689.404 172.423Q689.299 172.527 689.185 172.62Q689.071 172.714 688.949 172.796Q688.826 172.878 688.696 172.947Q688.566 173.017 688.43 173.073Q688.294 173.129 688.153 173.172Q688.012 173.215 687.867 173.244Q687.723 173.273 687.576 173.287Q687.43 173.301 687.282 173.301Q687.135 173.301 686.988 173.287Q686.841 173.273 686.697 173.244Q686.552 173.215 686.411 173.172Q686.27 173.129 686.134 173.073Q685.998 173.017 685.868 172.947Q685.738 172.878 685.615 172.796Q685.493 172.714 685.379 172.62Q685.265 172.527 685.161 172.423Q685.057 172.319 684.963 172.205Q684.87 172.091 684.788 171.968Q684.706 171.846 684.636 171.716Q684.567 171.586 684.51 171.449Q684.454 171.313 684.411 171.172Q684.369 171.031 684.34 170.887Q684.311 170.742 684.297 170.595Q684.282 170.449 684.282 170.301Q684.282 170.154 684.297 170.007Q684.311 169.861 684.34 169.716Q684.369 169.572 684.411 169.431Q684.454 169.29 684.51 169.153Q684.567 169.017 684.636 168.887Q684.706 168.757 684.788 168.635Q684.87 168.512 684.963 168.398Q685.057 168.284 685.161 168.18Q685.265 168.076 685.379 167.982Q685.493 167.889 685.615 167.807Q685.738 167.725 685.868 167.656Q685.998 167.586 686.134 167.53Q686.27 167.473 686.411 167.431Q686.552 167.388 686.697 167.359Q686.841 167.33 686.988 167.316Q687.135 167.301 687.282 167.301Q687.43 167.301 687.576 167.316Q687.723 167.33 687.867 167.359Q688.012 167.388 688.153 167.431Q688.294 167.473 688.43 167.53Q688.566 167.586 688.696 167.656Q688.826 167.725 688.949 167.807Q689.071 167.889 689.185 167.982Q689.299 168.076 689.404 168.18Q689.508 168.284 689.601 168.398Q689.695 168.512 689.777 168.635Q689.858 168.757 689.928 168.887Q689.997 169.017 690.054 169.153Q690.11 169.29 690.153 169.431Q690.196 169.572 690.225 169.716Q690.253 169.861 690.268 170.007Q690.282 170.154 690.282 170.301ZM781.254 217.523Q781.254 217.67 781.239 217.817Q781.225 217.963 781.196 218.108Q781.167 218.252 781.124 218.393Q781.082 218.534 781.025 218.671Q780.969 218.807 780.899 218.937Q780.83 219.067 780.748 219.189Q780.666 219.312 780.573 219.426Q780.479 219.54 780.375 219.644Q780.271 219.748 780.157 219.842Q780.043 219.935 779.92 220.017Q779.798 220.099 779.668 220.168Q779.538 220.238 779.402 220.294Q779.265 220.351 779.124 220.393Q778.983 220.436 778.839 220.465Q778.694 220.494 778.548 220.508Q778.401 220.523 778.254 220.523Q778.106 220.523 777.959 220.508Q777.813 220.494 777.668 220.465Q777.524 220.436 777.383 220.393Q777.242 220.351 777.105 220.294Q776.969 220.238 776.839 220.168Q776.709 220.099 776.587 220.017Q776.464 219.935 776.35 219.842Q776.236 219.748 776.132 219.644Q776.028 219.54 775.934 219.426Q775.841 219.312 775.759 219.189Q775.677 219.067 775.608 218.937Q775.538 218.807 775.482 218.671Q775.425 218.534 775.383 218.393Q775.34 218.252 775.311 218.108Q775.282 217.963 775.268 217.817Q775.254 217.67 775.254 217.523Q775.254 217.375 775.268 217.228Q775.282 217.082 775.311 216.937Q775.34 216.793 775.383 216.652Q775.425 216.511 775.482 216.374Q775.538 216.238 775.608 216.108Q775.677 215.978 775.759 215.856Q775.841 215.733 775.934 215.619Q776.028 215.505 776.132 215.401Q776.236 215.297 776.35 215.203Q776.464 215.11 776.587 215.028Q776.709 214.946 776.839 214.877Q776.969 214.807 777.105 214.751Q777.242 214.695 777.383 214.652Q777.524 214.609 777.668 214.58Q777.813 214.551 777.96 214.537Q778.106 214.523 778.254 214.523Q778.401 214.523 778.548 214.537Q778.694 214.551 778.839 214.58Q778.983 214.609 779.124 214.652Q779.265 214.694 779.401 214.751Q779.538 214.807 779.668 214.877Q779.798 214.946 779.92 215.028Q780.043 215.11 780.157 215.203Q780.271 215.297 780.375 215.401Q780.479 215.505 780.573 215.619Q780.666 215.733 780.748 215.856Q780.83 215.978 780.899 216.108Q780.969 216.238 781.025 216.374Q781.082 216.511 781.124 216.652Q781.167 216.793 781.196 216.937Q781.225 217.082 781.239 217.228Q781.254 217.375 781.254 217.523Z"/>
	</g>
	<defs>
		<clipPath id="clip_76">
			<rect width="800" height="600" clip-rule="evenodd"/>
		</clipPath>
	</defs>
	<g clip-path="url(#clip_76)">
		<text fill="rgb(0,0,0)" stroke="none" transform="translate(414.368 8)" font-size="18" text-anchor="middle" font-weight="600" font-family="Segoe UI" x="0" y="19.423828">
				Vertikalgradient in Abhängigkeit von X
		</text>
	</g>
	<defs>
		<clipPath id="clip_77">
			<rect width="800" height="600" clip-rule="evenodd"/>
		</clipPath>
	</defs>
	<g clip-path="url(#clip_77)">
		<rect fill="none" stroke="rgb(0,0,0)" stroke-width="1" stroke-miterlimit="10" x="43.205078" y="45.921875" width="742.32617" height="519.11719"/>
	</g>
</svg>
